<svg data-v-fde0c5aa="" xmlns="http://www.w3.org/2000/svg" viewBox="0 0 300 300" class="icon"><!----><defs data-v-fde0c5aa=""><!----></defs><rect data-v-fde0c5aa="" fill="#EFEEEB" x="0" y="0" width="300px" height="300px" class="logo-background-square"></rect><!----><defs data-v-fde0c5aa=""><linearGradient data-v-fde0c5aa="" gradientTransform="rotate(25)" id="0d8c2a87-bb1f-4c79-959c-d6931fc2d11f" x1="0%" y1="0%" x2="100%" y2="0%"><stop data-v-fde0c5aa="" offset="0%" stop-color="#0978A6" stop-opacity="1"></stop><stop data-v-fde0c5aa="" offset="100%" stop-color="#FB9447" stop-opacity="1"></stop></linearGradient></defs><g data-v-fde0c5aa="" id="171160a3-ccaa-4c6f-acc2-4e4cc4d4f90e" fill="url(#0d8c2a87-bb1f-4c79-959c-d6931fc2d11f)" stroke="none" transform="matrix(2.3157894736842106,0,0,2.3157894736842106,40,45.78947368421052)"><g><path d="M85.5 9.474H95V90h-9.5zM0 0h80.75v90H0V0zm9.5 9.474h61.75v4.737H9.5V9.474zm23.75 14.21h38v4.737h-38v-4.737zm0 9.474h38v4.737h-38v-4.737zm0 9.474h38v4.736h-38v-4.736zM9.5 56.842h61.75v4.737H9.5v-4.737zm0 9.474h33.25v4.737H9.5v-4.737zm0 9.473H57v4.737H9.5V75.79zm0-52.105h19v23.684h-19V23.684z"></path></g></g><!----></svg>