<svg data-v-423bf9ae="" xmlns="http://www.w3.org/2000/svg" viewBox="0 0 405 90" class="iconLeft"><g data-v-423bf9ae="" id="cafc88a9-bdf2-4f02-9713-7745747f0e15" fill="#1F1E1A" transform="matrix(4.434590200540881,0,0,4.434590200540881,113.31485541552021,2.0066501779558052)"><path d="M4.17 13.43C6.52 13.43 7.74 12.25 7.74 10.49C7.74 9.31 7.20 8.48 5.95 8.11C6.66 7.59 6.96 6.94 6.96 6.12C6.96 4.49 5.87 3.63 2.44 3.63L0.38 3.63L0.38 4.66L1.41 4.66L1.41 13.43ZM3.96 8.88C5.77 8.88 6.40 9.44 6.40 10.47C6.40 11.66 5.57 12.40 4.06 12.40L2.69 12.40L2.69 8.88ZM3.99 7.87L2.69 7.87L2.69 4.66C5.05 4.70 5.67 5.25 5.67 6.26C5.67 6.99 5.35 7.52 4.80 7.91C4.55 7.88 4.27 7.87 3.99 7.87ZM9.13 2.93L9.13 11.56C9.13 12.85 9.60 13.47 10.95 13.47C11.10 13.47 11.24 13.45 11.40 13.44L11.40 12.43C11.26 12.46 11.16 12.46 11.03 12.46C10.56 12.46 10.40 12.14 10.40 11.54L10.40 2.93ZM15.34 13.57C17.18 13.57 18.55 12.53 18.55 10.07C18.55 7.71 17.28 6.61 15.34 6.61C13.44 6.61 12.15 7.71 12.15 10.07C12.15 12.53 13.52 13.57 15.34 13.57ZM17.28 10.05C17.28 11.72 16.56 12.57 15.34 12.57C14.15 12.57 13.44 11.72 13.44 10.05C13.44 8.37 14.21 7.60 15.34 7.60C16.51 7.60 17.28 8.37 17.28 10.05ZM21.94 15.46C21.20 15.46 20.43 15.37 19.87 15.20L19.87 16.20C20.41 16.37 21.25 16.46 21.98 16.46C24.40 16.46 25.77 15.41 25.77 12.64L25.77 7.03C25.07 6.75 23.95 6.61 23.18 6.61C20.90 6.61 19.68 7.94 19.68 10.42C19.68 12.70 20.78 13.57 22.22 13.57C23.27 13.57 24.04 13.10 24.51 12.00L24.51 12.63C24.51 14.80 23.51 15.46 21.94 15.46ZM22.48 12.52C21.57 12.52 20.97 11.93 20.97 10.35C20.97 8.50 21.78 7.59 23.23 7.59C23.62 7.59 24.05 7.64 24.51 7.73L24.51 7.88C24.46 11.83 23.44 12.52 22.48 12.52ZM32.06 13.43L32.06 6.78C32.06 6.30 32.06 5.82 32.00 5.38C32.09 5.64 32.47 6.36 32.66 6.68L36.76 13.43L38.07 13.43L38.07 3.63L36.89 3.63L36.89 9.94C36.89 10.43 36.90 11.24 36.96 11.59C36.83 11.27 36.55 10.77 36.33 10.39L32.19 3.63L30.88 3.63L30.88 13.43ZM42.71 6.61C40.77 6.61 39.61 7.74 39.61 9.95C39.61 12.33 41.02 13.57 43.26 13.57C44.02 13.57 44.84 13.44 45.47 13.19L45.47 12.15C44.69 12.40 43.82 12.52 43.23 12.52C41.82 12.52 40.99 11.84 40.84 10.40L45.58 10.40L45.58 9.83C45.58 7.71 44.55 6.61 42.71 6.61ZM42.70 7.56C43.79 7.56 44.34 8.40 44.34 9.53L40.82 9.53C40.94 8.18 41.66 7.56 42.70 7.56ZM47.60 13.43L49.43 10.63L51.27 13.43L52.63 13.43L50.30 9.97L52.47 6.75L51.16 6.75L49.43 9.37L47.70 6.75L46.41 6.75L48.55 9.97L46.24 13.43ZM57.25 12.38C56.91 12.45 56.69 12.49 56.36 12.49C55.59 12.49 55.29 12.17 55.29 11.12L55.29 7.71L57.12 7.71L57.12 6.75L55.29 6.75L55.29 5.07L54.68 5.07L54.08 6.75L52.96 6.75L52.96 7.71L54.03 7.71L54.03 11.26C54.03 12.78 54.53 13.50 56.07 13.50C56.60 13.50 56.91 13.44 57.25 13.36ZM58.46 6.75L58.46 10.28L58.48 10.28L58.48 13.90C58.48 15.06 57.95 15.46 57.40 15.46C57.15 15.46 56.94 15.43 56.73 15.37L56.73 16.37C56.95 16.44 57.30 16.46 57.61 16.46C58.91 16.46 59.74 15.74 59.74 14.07L59.74 6.75ZM58.46 3.72L58.46 5.10L59.74 5.10L59.74 3.72ZM62.52 8.33C62.52 7.83 62.87 7.60 63.73 7.60C64.23 7.60 64.97 7.69 65.32 7.84L65.32 6.85C65.02 6.72 64.36 6.61 63.66 6.61C61.96 6.61 61.29 7.24 61.29 8.27C61.29 9.31 61.89 9.76 63.13 10.46C64.15 11.06 64.39 11.37 64.39 11.76C64.39 12.36 63.77 12.59 62.99 12.59C62.41 12.59 61.85 12.50 61.21 12.29L61.21 13.29C61.67 13.45 62.44 13.57 63.17 13.57C64.40 13.57 65.62 13.20 65.62 11.75C65.62 10.60 64.95 10.18 63.97 9.60C62.89 8.96 62.52 8.75 62.52 8.33Z"></path></g><defs data-v-423bf9ae=""><linearGradient data-v-423bf9ae="" gradientTransform="rotate(25)" id="b05c6c0f-e8cd-46b9-830a-24647c776b5b" x1="0%" y1="0%" x2="100%" y2="0%"><stop data-v-423bf9ae="" offset="0%" style="stop-color: rgb(9, 120, 166); stop-opacity: 1;"></stop><stop data-v-423bf9ae="" offset="100%" style="stop-color: rgb(251, 148, 71); stop-opacity: 1;"></stop></linearGradient></defs><g data-v-423bf9ae="" id="d8c65029-badf-4a88-9332-cdc4d7db7c6f" transform="matrix(1,0,0,1,0.5,0)" stroke="none" fill="url(#b05c6c0f-e8cd-46b9-830a-24647c776b5b)"><g><path d="M85.5 9.474H95V90h-9.5zM0 0h80.75v90H0V0zm9.5 9.474h61.75v4.737H9.5V9.474zm23.75 14.21h38v4.737h-38v-4.737zm0 9.474h38v4.737h-38v-4.737zm0 9.474h38v4.736h-38v-4.736zM9.5 56.842h61.75v4.737H9.5v-4.737zm0 9.474h33.25v4.737H9.5v-4.737zm0 9.473H57v4.737H9.5V75.79zm0-52.105h19v23.684h-19V23.684z"></path></g></g></svg>